<?xml version="1.0" encoding="iso-8859-1"?><!-- Generator: Adobe Illustrator 19.0.0, SVG Export Plug-In . SVG Version: 6.00 Build 0)  -->
<svg version="1.1" id="Capa_1" xmlns="http://www.w3.org/2000/svg"
    xmlns:xlink="http://www.w3.org/1999/xlink" x="0px" y="0px" viewBox="0 0 512 512"
    style="enable-background:new 0 0 512 512;" xml:space="preserve">
<path style="fill:#FFE269;" d="M255.999,108.853c-4.273,0-7.737-3.464-7.737-7.737V87.027c0-4.273,3.463-7.737,7.737-7.737
	c4.273,0,7.737,3.464,7.737,7.737v14.088C263.737,105.389,260.273,108.853,255.999,108.853z" />
    <path style="fill:#FC914A;" d="M273.941,19.792c-5.542-11.16-16.254-29.717-28.56-13.291c-9.342,12.472-18.391,35.236-3.907,47.456
	c7.785,6.567,21.253,6.581,29.053,0C280.842,45.254,279.266,30.518,273.941,19.792z" />
    <path style="fill:#EA7636;" d="M270.525,53.952c-5.55,4.683-13.988,6.035-21.189,4.044c2.909-0.804,5.622-2.146,7.871-4.044
	c10.316-8.696,8.738-23.438,3.415-34.156c-2.785-5.602-6.87-13.081-11.812-17.032c10.842-9.264,20.116,6.922,25.129,17.032
	C279.263,30.515,280.841,45.256,270.525,53.952z" />
    <path style="fill:#E84661;" d="M322.054,402.267V106.274c0-2.849-2.309-5.158-5.158-5.158h-123.26c-2.135,0-4.057,1.309-4.813,3.306
	c-3.953,10.436-19.384,42.7-62.402,54.715c-2.229,0.623-3.778,2.648-3.778,4.962v54.842c0,2.849,2.309,5.158,5.158,5.158h56.987
	c2.849,0,5.158,2.309,5.158,5.158v173.01c0,2.849-2.309,5.158-5.158,5.158h-65.722c-2.849,0-5.158,2.309-5.158,5.158v94.256
	c0,2.849,2.309,5.158,5.158,5.158h273.869c2.849,0,5.158-2.309,5.158-5.158v-94.256c0-2.849-2.309-5.158-5.158-5.158h-65.722
	C324.363,407.425,322.054,405.115,322.054,402.267z" />
    <path style="fill:#CE1D4C;" d="M398.091,412.585v94.257c0,2.847-2.311,5.158-5.158,5.158h-33.011v-79.298
	c0-2.847-2.311-5.158-5.158-5.158h-65.722c-2.847,0-5.158-2.31-5.158-5.158V101.117h33.011c2.847,0,5.158,2.311,5.158,5.158v295.995
	c0,2.847,2.311,5.158,5.158,5.158h65.722C395.78,407.427,398.091,409.738,398.091,412.585z" />
    <g>
</g>
    <g>
</g>
    <g>
</g>
    <g>
</g>
    <g>
</g>
    <g>
</g>
    <g>
</g>
    <g>
</g>
    <g>
</g>
    <g>
</g>
    <g>
</g>
    <g>
</g>
    <g>
</g>
    <g>
</g>
    <g>
</g>
</svg>
